<svg width="9" height="14" viewBox="0 0 9 14" fill="none" xmlns="http://www.w3.org/2000/svg">
<path d="M7.92994 12.5414C7.20154 11.8515 6.47314 11.1574 5.74902 10.4676C4.58786 9.36212 3.4267 8.26094 2.26554 7.15549C1.99561 6.90269 1.72995 6.64561 1.46002 6.39281C1.46002 6.79557 1.46002 7.20262 1.46002 7.60538C2.18842 6.91554 2.91682 6.22142 3.64094 5.53158C4.8021 4.42612 5.96325 3.32495 7.12441 2.21949C7.39435 1.9667 7.66 1.70961 7.92994 1.45681C8.25558 1.14831 8.26415 0.552739 7.92994 0.244239C7.57859 -0.0771143 7.06443 -0.0856838 6.71736 0.244239C5.98896 0.934079 5.26056 1.6282 4.53644 2.31804C3.37529 3.4235 2.21413 4.52467 1.05297 5.63013C0.783032 5.88293 0.51738 6.14001 0.247442 6.39281C-0.0824808 6.70559 -0.0824808 7.2926 0.247442 7.60538C0.975844 8.29522 1.70425 8.98935 2.42836 9.67919C3.58952 10.7846 4.75068 11.8858 5.91184 12.9913C6.18178 13.2441 6.44743 13.5012 6.71736 13.754C7.043 14.0625 7.61287 14.101 7.92994 13.754C8.23415 13.4155 8.277 12.8713 7.92994 12.5414Z" fill="#417DB3"/>
</svg>
