<svg width="24" height="24" viewBox="0 0 24 24" fill="none" xmlns="http://www.w3.org/2000/svg">
<path d="M15.9299 17.5414C15.2015 16.8515 14.4731 16.1574 13.749 15.4676C12.5879 14.3621 11.4267 13.2609 10.2655 12.1555C9.99561 11.9027 9.72995 11.6456 9.46002 11.3928C9.46002 11.7956 9.46002 12.2026 9.46002 12.6054C10.1884 11.9155 10.9168 11.2214 11.6409 10.5316C12.8021 9.42612 13.9633 8.32495 15.1244 7.21949C15.3943 6.9667 15.66 6.70961 15.9299 6.45681C16.2556 6.14831 16.2641 5.55274 15.9299 5.24424C15.5786 4.92289 15.0644 4.91432 14.7174 5.24424C13.989 5.93408 13.2606 6.6282 12.5364 7.31804C11.3753 8.4235 10.2141 9.52467 9.05297 10.6301C8.78303 10.8829 8.51738 11.14 8.24744 11.3928C7.91752 11.7056 7.91752 12.2926 8.24744 12.6054C8.97584 13.2952 9.70425 13.9893 10.4284 14.6792C11.5895 15.7846 12.7507 16.8858 13.9118 17.9913C14.1818 18.2441 14.4474 18.5012 14.7174 18.754C15.043 19.0625 15.6129 19.101 15.9299 18.754C16.2342 18.4155 16.277 17.8713 15.9299 17.5414Z" fill="#417DB3"/>
</svg>
