<svg width="68" height="68" viewBox="0 0 68 68" fill="none" xmlns="http://www.w3.org/2000/svg">
<g filter="url(#filter0_d_282_1833)">
<rect x="8" y="6" width="52" height="52" rx="18" fill="white"/>
<path d="M30.8571 21H25.3571C24.0553 21 23 22.0553 23 23.3571V28.8571C23 30.159 24.0553 31.2143 25.3571 31.2143H30.8571C32.159 31.2143 33.2143 30.159 33.2143 28.8571V23.3571C33.2143 22.0553 32.159 21 30.8571 21Z" fill="url(#paint0_linear_282_1833)"/>
<path d="M39.8928 31.2143C42.7134 31.2143 44.9999 28.9277 44.9999 26.1071C44.9999 23.2865 42.7134 21 39.8928 21C37.0722 21 34.7856 23.2865 34.7856 26.1071C34.7856 28.9277 37.0722 31.2143 39.8928 31.2143Z" fill="url(#paint1_linear_282_1833)"/>
<path d="M42.6428 32.7856H37.1428C35.841 32.7856 34.7856 33.841 34.7856 35.1428V40.6428C34.7856 41.9446 35.841 42.9999 37.1428 42.9999H42.6428C43.9446 42.9999 44.9999 41.9446 44.9999 40.6428V35.1428C44.9999 33.841 43.9446 32.7856 42.6428 32.7856Z" fill="url(#paint2_linear_282_1833)"/>
<path d="M30.8571 32.7856H25.3571C24.0553 32.7856 23 33.841 23 35.1428V40.6428C23 41.9446 24.0553 42.9999 25.3571 42.9999H30.8571C32.159 42.9999 33.2143 41.9446 33.2143 40.6428V35.1428C33.2143 33.841 32.159 32.7856 30.8571 32.7856Z" fill="url(#paint3_linear_282_1833)"/>
</g>
<defs>
<filter id="filter0_d_282_1833" x="0" y="0" width="68" height="68" filterUnits="userSpaceOnUse" color-interpolation-filters="sRGB">
<feFlood flood-opacity="0" result="BackgroundImageFix"/>
<feColorMatrix in="SourceAlpha" type="matrix" values="0 0 0 0 0 0 0 0 0 0 0 0 0 0 0 0 0 0 127 0" result="hardAlpha"/>
<feOffset dy="2"/>
<feGaussianBlur stdDeviation="4"/>
<feComposite in2="hardAlpha" operator="out"/>
<feColorMatrix type="matrix" values="0 0 0 0 0 0 0 0 0 0 0 0 0 0 0 0 0 0 0.12 0"/>
<feBlend mode="normal" in2="BackgroundImageFix" result="effect1_dropShadow_282_1833"/>
<feBlend mode="normal" in="SourceGraphic" in2="effect1_dropShadow_282_1833" result="shape"/>
</filter>
<linearGradient id="paint0_linear_282_1833" x1="56.6081" y1="50.1533" x2="20.6761" y2="61.5518" gradientUnits="userSpaceOnUse">
<stop stop-color="#417DB3"/>
<stop offset="1" stop-color="#1C354C"/>
</linearGradient>
<linearGradient id="paint1_linear_282_1833" x1="68.3938" y1="50.1533" x2="32.4617" y2="61.5518" gradientUnits="userSpaceOnUse">
<stop stop-color="#417DB3"/>
<stop offset="1" stop-color="#1C354C"/>
</linearGradient>
<linearGradient id="paint2_linear_282_1833" x1="68.3938" y1="61.9389" x2="32.4617" y2="73.3374" gradientUnits="userSpaceOnUse">
<stop stop-color="#417DB3"/>
<stop offset="1" stop-color="#1C354C"/>
</linearGradient>
<linearGradient id="paint3_linear_282_1833" x1="56.6081" y1="61.9389" x2="20.6761" y2="73.3374" gradientUnits="userSpaceOnUse">
<stop stop-color="#417DB3"/>
<stop offset="1" stop-color="#1C354C"/>
</linearGradient>
</defs>
</svg>
