<svg width="52" height="52" viewBox="0 0 52 52" fill="none" xmlns="http://www.w3.org/2000/svg">
<path d="M22.8571 15H17.3571C16.0553 15 15 16.0553 15 17.3571V22.8571C15 24.159 16.0553 25.2143 17.3571 25.2143H22.8571C24.159 25.2143 25.2143 24.159 25.2143 22.8571V17.3571C25.2143 16.0553 24.159 15 22.8571 15Z" fill="#97B7D5"/>
<path d="M31.8933 25.2143C34.7139 25.2143 37.0004 22.9277 37.0004 20.1071C37.0004 17.2865 34.7139 15 31.8933 15C29.0727 15 26.7861 17.2865 26.7861 20.1071C26.7861 22.9277 29.0727 25.2143 31.8933 25.2143Z" fill="#97B7D5"/>
<path d="M34.6433 26.7856H29.1433C27.8415 26.7856 26.7861 27.841 26.7861 29.1428V34.6428C26.7861 35.9446 27.8415 36.9999 29.1433 36.9999H34.6433C35.9451 36.9999 37.0004 35.9446 37.0004 34.6428V29.1428C37.0004 27.841 35.9451 26.7856 34.6433 26.7856Z" fill="#97B7D5"/>
<path d="M22.8571 26.7856H17.3571C16.0553 26.7856 15 27.841 15 29.1428V34.6428C15 35.9446 16.0553 36.9999 17.3571 36.9999H22.8571C24.159 36.9999 25.2143 35.9446 25.2143 34.6428V29.1428C25.2143 27.841 24.159 26.7856 22.8571 26.7856Z" fill="#97B7D5"/>
</svg>
