<svg width="52" height="52" viewBox="0 0 52 52" fill="none" xmlns="http://www.w3.org/2000/svg">
<path d="M19.3387 15H32.9174C33.1741 15 33.4283 15.0506 33.6654 15.1488C33.9025 15.247 34.118 15.391 34.2995 15.5725C34.481 15.754 34.6249 15.9694 34.7232 16.2066C34.8214 16.4437 34.8719 16.6979 34.8719 16.9545V35.0455C34.8719 35.3021 34.8214 35.5563 34.7232 35.7934C34.6249 36.0306 34.481 36.246 34.2995 36.4275C34.118 36.609 33.9025 36.753 33.6654 36.8512C33.4283 36.9494 33.1741 37 32.9174 37H19.3387C18.8205 37 18.3235 36.7941 17.9571 36.4277C17.5906 36.0613 17.3848 35.5643 17.3848 35.046V16.954C17.3848 16.4357 17.5906 15.9387 17.9571 15.5723C18.3235 15.2059 18.8205 15 19.3387 15Z" fill="#97B7D5"/>
<path d="M15.9066 34.7435H16.2564V17.2563H15.9066C15.4013 17.2576 14.9171 17.4589 14.5599 17.8162C14.2026 18.1735 14.0013 18.6577 14 19.1629V32.8369C14.0013 33.3422 14.2026 33.8264 14.5599 34.1837C14.9171 34.5409 15.4013 34.7422 15.9066 34.7435Z" fill="#97B7D5"/>
<path d="M38.2564 19.1629C38.2551 18.6577 38.0538 18.1735 37.6965 17.8162C37.3393 17.4589 36.8551 17.2576 36.3498 17.2563H36V34.7435H36.3498C36.8551 34.7422 37.3393 34.5409 37.6965 34.1837C38.0538 33.8264 38.2551 33.3422 38.2564 32.8369V19.1629Z" fill="#97B7D5"/>
</svg>
