<svg width="80" height="48" viewBox="0 0 80 48" fill="none" xmlns="http://www.w3.org/2000/svg">
<g filter="url(#filter0_d_290_10397)">
<rect x="12" y="10" width="56" height="24" rx="5" fill="white"/>
<path fill-rule="evenodd" clip-rule="evenodd" d="M25.1937 25.2778C25.304 25.3362 25.4382 25.304 25.5108 25.2072L26.5799 24.025L30 25.0491V28C23.4309 27.8689 18.1311 22.5691 18 16H20.9509L21.975 19.4201L20.7761 20.5044C20.6897 20.5825 20.671 20.7074 20.7232 20.8057L20.7224 20.8061C21.2276 21.7562 21.8706 22.6216 22.6243 23.3754C23.3782 24.1294 24.2436 24.7725 25.1937 25.2778Z" fill="#29A71A"/>
<path d="M39.816 27.168C39.0507 27.168 38.3553 26.986 37.73 26.622C37.1047 26.258 36.6053 25.726 36.232 25.026C35.868 24.3167 35.686 23.458 35.686 22.45C35.686 21.4513 35.8727 20.5973 36.246 19.888C36.6287 19.1693 37.1373 18.6233 37.772 18.25C38.4067 17.8673 39.1067 17.676 39.872 17.676C40.4507 17.676 40.964 17.7927 41.412 18.026C41.86 18.2593 42.2287 18.53 42.518 18.838L41.65 19.888C41.4167 19.6453 41.1553 19.454 40.866 19.314C40.586 19.1647 40.2687 19.09 39.914 19.09C39.4193 19.09 38.976 19.2253 38.584 19.496C38.2013 19.7573 37.898 20.1353 37.674 20.63C37.4593 21.1247 37.352 21.7173 37.352 22.408C37.352 23.4533 37.5807 24.2747 38.038 24.872C38.4953 25.46 39.1067 25.754 39.872 25.754C40.2827 25.754 40.6467 25.67 40.964 25.502C41.2813 25.3247 41.5707 25.096 41.832 24.816L42.7 25.838C42.3267 26.2673 41.8973 26.5987 41.412 26.832C40.936 27.056 40.404 27.168 39.816 27.168ZM46.1744 27.168C45.5771 27.168 45.0871 26.9813 44.7044 26.608C44.3311 26.2347 44.1444 25.7493 44.1444 25.152C44.1444 24.4147 44.4664 23.8453 45.1104 23.444C45.7544 23.0333 46.7811 22.7533 48.1904 22.604C48.1811 22.24 48.0831 21.9273 47.8964 21.666C47.7191 21.3953 47.3971 21.26 46.9304 21.26C46.5944 21.26 46.2631 21.3253 45.9364 21.456C45.6191 21.5867 45.3064 21.7453 44.9984 21.932L44.4104 20.854C44.7931 20.6113 45.2224 20.4013 45.6984 20.224C46.1837 20.0467 46.6971 19.958 47.2384 19.958C48.0971 19.958 48.7364 20.2147 49.1564 20.728C49.5857 21.232 49.8004 21.9647 49.8004 22.926V27H48.4704L48.3584 26.244H48.3024C47.9944 26.5053 47.6631 26.7247 47.3084 26.902C46.9631 27.0793 46.5851 27.168 46.1744 27.168ZM46.6924 25.908C46.9724 25.908 47.2244 25.8427 47.4484 25.712C47.6817 25.572 47.9291 25.3853 48.1904 25.152V23.612C47.2571 23.7333 46.6084 23.9153 46.2444 24.158C45.8804 24.3913 45.6984 24.6807 45.6984 25.026C45.6984 25.334 45.7917 25.558 45.9784 25.698C46.1651 25.838 46.4031 25.908 46.6924 25.908ZM53.7152 27.168C53.1458 27.168 52.7398 26.9953 52.4972 26.65C52.2638 26.3047 52.1472 25.8333 52.1472 25.236V17.116H53.7572V25.32C53.7572 25.516 53.7945 25.656 53.8692 25.74C53.9438 25.8147 54.0232 25.852 54.1072 25.852C54.1445 25.852 54.1772 25.852 54.2052 25.852C54.2425 25.8427 54.2938 25.8333 54.3592 25.824L54.5692 27.028C54.4758 27.0653 54.3545 27.098 54.2052 27.126C54.0652 27.154 53.9018 27.168 53.7152 27.168ZM57.9359 27.168C57.3666 27.168 56.9606 26.9953 56.7179 26.65C56.4846 26.3047 56.3679 25.8333 56.3679 25.236V17.116H57.9779V25.32C57.9779 25.516 58.0153 25.656 58.0899 25.74C58.1646 25.8147 58.2439 25.852 58.3279 25.852C58.3653 25.852 58.3979 25.852 58.4259 25.852C58.4633 25.8427 58.5146 25.8333 58.5799 25.824L58.7899 27.028C58.6966 27.0653 58.5753 27.098 58.4259 27.126C58.2859 27.154 58.1226 27.168 57.9359 27.168Z" fill="#2BA84A"/>
</g>
<defs>
<filter id="filter0_d_290_10397" x="0" y="0" width="80" height="48" filterUnits="userSpaceOnUse" color-interpolation-filters="sRGB">
<feFlood flood-opacity="0" result="BackgroundImageFix"/>
<feColorMatrix in="SourceAlpha" type="matrix" values="0 0 0 0 0 0 0 0 0 0 0 0 0 0 0 0 0 0 127 0" result="hardAlpha"/>
<feOffset dy="2"/>
<feGaussianBlur stdDeviation="6"/>
<feComposite in2="hardAlpha" operator="out"/>
<feColorMatrix type="matrix" values="0 0 0 0 0 0 0 0 0 0 0 0 0 0 0 0 0 0 0.12 0"/>
<feBlend mode="normal" in2="BackgroundImageFix" result="effect1_dropShadow_290_10397"/>
<feBlend mode="normal" in="SourceGraphic" in2="effect1_dropShadow_290_10397" result="shape"/>
</filter>
</defs>
</svg>
