<svg width="30" height="30" viewBox="0 0 30 30" fill="none" xmlns="http://www.w3.org/2000/svg">
<path d="M12.2029 10.2502C12.8273 10.8415 13.4516 11.4365 14.0723 12.0278C15.0675 12.9753 16.0628 13.9192 17.0581 14.8667C17.2895 15.0834 17.5172 15.3038 17.7486 15.5205C17.7486 15.1752 17.7486 14.8263 17.7486 14.4811C17.1242 15.0724 16.4999 15.6674 15.8792 16.2586C14.8839 17.2062 13.8886 18.15 12.8934 19.0976C12.662 19.3143 12.4343 19.5346 12.2029 19.7513C11.9238 20.0157 11.9164 20.5262 12.2029 20.7907C12.5041 21.0661 12.9448 21.0734 13.2423 20.7907C13.8666 20.1994 14.4909 19.6044 15.1116 19.0131C16.1069 18.0656 17.1022 17.1217 18.0975 16.1742C18.3288 15.9575 18.5565 15.7371 18.7879 15.5205C19.0707 15.2523 19.0707 14.7492 18.7879 14.4811C18.1636 13.8898 17.5392 13.2948 16.9185 12.7036C15.9233 11.756 14.928 10.8122 13.9327 9.86462C13.7013 9.64794 13.4736 9.42758 13.2423 9.2109C12.9631 8.94647 12.4747 8.91342 12.2029 9.2109C11.9422 9.50104 11.9054 9.96746 12.2029 10.2502Z" fill="#417DB3"/>
</svg>
