<svg width="52" height="52" viewBox="0 0 52 52" fill="none" xmlns="http://www.w3.org/2000/svg">
<path d="M37.0542 24.6987C36.9468 25.0057 36.7466 25.2717 36.4813 25.4599C36.216 25.648 35.8986 25.7489 35.5734 25.7485H34.7899V35.4325C34.7736 35.8579 34.5915 36.26 34.2825 36.5528C33.9736 36.8456 33.5623 37.006 33.1367 36.9995H29.611C29.1827 37.0101 28.7674 36.8516 28.4551 36.5584C28.1428 36.2651 27.9585 35.8606 27.9422 35.4325V31.515H24.2284V35.4325C24.2121 35.8606 24.0278 36.2651 23.7155 36.5584C23.4031 36.8516 22.9879 37.0101 22.5596 36.9995H19.0339C18.6055 37.0101 18.1903 36.8516 17.878 36.5584C17.5656 36.2651 17.3814 35.8606 17.365 35.4325V25.7485H16.5815C16.2558 25.7516 15.9372 25.653 15.67 25.4665C15.4029 25.28 15.2006 25.015 15.0911 24.7081C14.9816 24.4013 14.9705 24.068 15.0593 23.7546C15.1481 23.4411 15.3324 23.1631 15.5865 22.9593L25.1059 15.3438C25.3838 15.1212 25.7293 15 26.0853 15C26.4413 15 26.7867 15.1212 27.0647 15.3438L36.5841 22.9593C36.8319 23.1656 37.01 23.4434 37.0941 23.7547C37.1783 24.0659 37.1643 24.3956 37.0542 24.6987Z" fill="#96B7D4"/>
</svg>
