<svg width="24" height="24" viewBox="0 0 24 24" fill="none" xmlns="http://www.w3.org/2000/svg">
<path d="M12 7C9.25042 7 7 9.25042 7 12C7 14.7496 9.25042 17 12 17C14.7496 17 17 14.7496 17 12C17 9.25042 14.7496 7 12 7Z" fill="#EEBE00"/>
<path d="M6 2C3.8013 2 2 3.8013 2 6V8C2 8.26522 2.10536 8.51959 2.29289 8.70712C2.48043 8.89466 2.73478 9 3 9C3.26522 9 3.51957 8.89466 3.70711 8.70712C3.89464 8.51959 4 8.26522 4 8V6C4 4.8747 4.8747 4 6 4H8C8.26522 4 8.51957 3.89466 8.70711 3.70712C8.89464 3.51959 9 3.26522 9 3C9 2.73478 8.89464 2.48044 8.70711 2.29291C8.51957 2.10537 8.26522 2 8 2H6Z" fill="#EEBE00"/>
<path d="M3 15C2.73478 15 2.48043 15.1054 2.29289 15.2929C2.10536 15.4804 2 15.7348 2 16V18C2 20.1987 3.8013 22 6 22H8C8.26522 22 8.51957 21.8947 8.70711 21.7071C8.89464 21.5196 9 21.2652 9 21C9 20.7348 8.89464 20.4804 8.70711 20.2929C8.51957 20.1054 8.26522 20 8 20H6C4.8747 20 4 19.1253 4 18V16C4 15.7348 3.89464 15.4804 3.70711 15.2929C3.51957 15.1054 3.26522 15 3 15Z" fill="#EEBE00"/>
<path d="M21 15C20.7348 15 20.4804 15.1054 20.2929 15.2929C20.1054 15.4804 20 15.7348 20 16V18C20 19.1253 19.1253 20 18 20H16C15.7348 20 15.4804 20.1054 15.2929 20.2929C15.1054 20.4804 15 20.7348 15 21C15 21.2652 15.1054 21.5196 15.2929 21.7071C15.4804 21.8947 15.7348 22 16 22H18C20.1987 22 22 20.1987 22 18V16C22 15.7348 21.8946 15.4804 21.7071 15.2929C21.5196 15.1054 21.2652 15 21 15Z" fill="#EEBE00"/>
<path d="M16 2C15.7348 2 15.4804 2.10537 15.2929 2.29291C15.1054 2.48044 15 2.73478 15 3C15 3.26522 15.1054 3.51959 15.2929 3.70712C15.4804 3.89466 15.7348 4 16 4H18C19.1253 4 20 4.8747 20 6V8C20 8.26522 20.1054 8.51959 20.2929 8.70712C20.4804 8.89466 20.7348 9 21 9C21.2652 9 21.5196 8.89466 21.7071 8.70712C21.8946 8.51959 22 8.26522 22 8V6C22 3.8013 20.1987 2 18 2H16Z" fill="#EEBE00"/>
</svg>
