<svg width="18" height="18" viewBox="0 0 18 18" fill="none" xmlns="http://www.w3.org/2000/svg">
<path d="M2.17857 4C1.52564 4 1 4.52564 1 5.17857V13.8214C1 14.4744 1.52564 15 2.17857 15H15.5357C16.1886 15 16.7143 14.4744 16.7143 13.8214V5.17857C16.7143 4.52564 16.1886 4 15.5357 4H2.17857ZM3.11161 5.76172C3.17114 5.75507 3.2314 5.76213 3.28779 5.78234C3.34417 5.80255 3.39519 5.83539 3.43694 5.87835L8.29855 10.6479C8.6027 10.9464 9.09848 10.9464 9.40346 10.6479L14.2773 5.87835C14.3138 5.84089 14.3573 5.81107 14.4054 5.79064C14.4534 5.7702 14.5051 5.75957 14.5574 5.75934C14.6096 5.75912 14.6614 5.76932 14.7096 5.78934C14.7579 5.80936 14.8017 5.83882 14.8384 5.87596C14.8751 5.91311 14.9041 5.9572 14.9236 6.00567C14.9431 6.05414 14.9527 6.10602 14.9519 6.15826C14.9511 6.21049 14.9399 6.26204 14.9189 6.30989C14.898 6.35775 14.8677 6.40094 14.8298 6.43694L11.644 9.56138L14.8237 12.5508C14.8988 12.6225 14.9425 12.7212 14.9452 12.8251C14.9478 12.929 14.9092 13.0297 14.8378 13.1052C14.7664 13.1807 14.6679 13.2248 14.564 13.2279C14.4602 13.231 14.3593 13.1928 14.2835 13.1217L11.0854 10.1077L9.95592 11.2126C9.34701 11.8086 8.35466 11.8098 7.74609 11.2126L6.62891 10.1138L3.4308 13.1217C3.35501 13.1928 3.25413 13.231 3.15025 13.2279C3.04636 13.2248 2.94793 13.1807 2.8765 13.1052C2.80506 13.0297 2.76644 12.929 2.76909 12.8251C2.77174 12.7212 2.81544 12.6225 2.89063 12.5508L6.06417 9.56138L2.88449 6.43694C2.83025 6.38538 2.79187 6.31941 2.77385 6.24677C2.75584 6.17414 2.75894 6.09786 2.7828 6.02693C2.80666 5.956 2.85028 5.89336 2.90853 5.84637C2.96678 5.79939 3.03723 5.77002 3.11161 5.76172Z" fill="#D0D0D0"/>
</svg>
