<svg width="24" height="24" viewBox="0 0 24 24" fill="none" xmlns="http://www.w3.org/2000/svg">
<path d="M3.58125 17.4065C3.96835 17.7935 4.45867 18 5.0006 18H10.7554H13.4651H19.22C19.7619 18 20.2522 17.7935 20.6393 17.4065C21.4393 16.6065 21.4135 15.2903 20.5619 14.5161L19.9167 13.9484C19.5038 13.5613 19.2716 13.0452 19.2716 12.4774C19.2716 12.4774 19.2716 11.0323 19.2716 9.32903C19.2716 5.97419 16.6909 2 12.3038 2H11.9167C7.52964 2 4.94899 5.94839 4.94899 9.32903C4.94899 11.0323 4.94899 12.4774 4.94899 12.4774C4.94899 13.0452 4.71673 13.5871 4.30383 13.9484L3.65867 14.5161C2.80706 15.2903 2.78125 16.6065 3.58125 17.4065Z" fill="#417DB3"/>
<path d="M12.0974 22C13.5941 22 14.807 20.7871 14.807 19.2903H9.3877C9.3877 20.7871 10.6006 22 12.0974 22Z" fill="#417DB3"/>
</svg>
