<svg width="52" height="52" viewBox="0 0 52 52" fill="none" xmlns="http://www.w3.org/2000/svg">
<path d="M25.8414 25.4211C28.7191 25.4211 31.0519 23.0882 31.0519 20.2105C31.0519 17.3328 28.7191 15 25.8414 15C22.9637 15 20.6309 17.3328 20.6309 20.2105C20.6309 23.0882 22.9637 25.4211 25.8414 25.4211Z" fill="#97B7D5"/>
<path fill-rule="evenodd" clip-rule="evenodd" d="M21.7796 25.5705C21.7831 25.5722 21.786 25.5739 21.7889 25.5757C22.9989 26.216 24.3785 26.579 25.8421 26.579C27.3074 26.579 28.6888 26.2148 29.8942 25.5629C29.8959 25.5623 29.897 25.5612 29.8988 25.5606C30.4453 25.2584 31.1123 25.2769 31.642 25.6081C32.1798 25.9479 32.6835 26.3491 33.1409 26.8065C34.7695 28.4351 35.6842 30.6444 35.6842 32.9474C35.6842 33.7898 35.6842 34.5812 35.6842 35.2632C35.6842 36.2225 34.9067 37 33.9474 37H17.7368C16.7775 37 16 36.2225 16 35.2632C16 34.5812 16 33.7898 16 32.9474C16 30.6444 16.9147 28.4351 18.5433 26.8065C18.999 26.3515 19.4997 25.9514 20.0416 25.622C20.0434 25.6208 20.0457 25.6191 20.048 25.6179C20.5737 25.2885 21.2366 25.2706 21.7796 25.5705Z" fill="#97B7D5"/>
</svg>
