<svg width="68" height="68" viewBox="0 0 68 68" fill="none" xmlns="http://www.w3.org/2000/svg">
<g filter="url(#filter0_d_290_6994)">
<rect x="8" y="6" width="52" height="52" rx="18" fill="white"/>
<path d="M33.8419 31.4211C36.7196 31.4211 39.0524 29.0882 39.0524 26.2105C39.0524 23.3328 36.7196 21 33.8419 21C30.9642 21 28.6313 23.3328 28.6313 26.2105C28.6313 29.0882 30.9642 31.4211 33.8419 31.4211Z" fill="url(#paint0_linear_290_6994)"/>
<path fill-rule="evenodd" clip-rule="evenodd" d="M29.7796 31.5705C29.7831 31.5722 29.786 31.5739 29.7889 31.5757C30.9989 32.216 32.3785 32.579 33.8421 32.579C35.3074 32.579 36.6888 32.2148 37.8942 31.5629C37.8959 31.5623 37.897 31.5612 37.8988 31.5606C38.4453 31.2584 39.1123 31.2769 39.642 31.6081C40.1798 31.9479 40.6835 32.3491 41.1409 32.8065C42.7695 34.4351 43.6842 36.6444 43.6842 38.9474C43.6842 39.7898 43.6842 40.5812 43.6842 41.2632C43.6842 42.2225 42.9067 43 41.9474 43H25.7368C24.7775 43 24 42.2225 24 41.2632C24 40.5812 24 39.7898 24 38.9474C24 36.6444 24.9147 34.4351 26.5433 32.8065C26.999 32.3515 27.4997 31.9514 28.0416 31.622C28.0434 31.6208 28.0457 31.6191 28.048 31.6179C28.5737 31.2885 29.2366 31.2706 29.7796 31.5705Z" fill="url(#paint1_linear_290_6994)"/>
</g>
<defs>
<filter id="filter0_d_290_6994" x="0" y="0" width="68" height="68" filterUnits="userSpaceOnUse" color-interpolation-filters="sRGB">
<feFlood flood-opacity="0" result="BackgroundImageFix"/>
<feColorMatrix in="SourceAlpha" type="matrix" values="0 0 0 0 0 0 0 0 0 0 0 0 0 0 0 0 0 0 127 0" result="hardAlpha"/>
<feOffset dy="2"/>
<feGaussianBlur stdDeviation="4"/>
<feComposite in2="hardAlpha" operator="out"/>
<feColorMatrix type="matrix" values="0 0 0 0 0 0 0 0 0 0 0 0 0 0 0 0 0 0 0.12 0"/>
<feBlend mode="normal" in2="BackgroundImageFix" result="effect1_dropShadow_290_6994"/>
<feBlend mode="normal" in="SourceGraphic" in2="effect1_dropShadow_290_6994" result="shape"/>
</filter>
<linearGradient id="paint0_linear_290_6994" x1="60.6608" y1="51.5526" x2="19.6527" y2="62.0445" gradientUnits="userSpaceOnUse">
<stop offset="0.0284255" stop-color="#417DB3"/>
<stop offset="1" stop-color="#1C354C"/>
</linearGradient>
<linearGradient id="paint1_linear_290_6994" x1="84.5" y1="65.5131" x2="14.9571" y2="95.5658" gradientUnits="userSpaceOnUse">
<stop offset="0.0284255" stop-color="#417DB3"/>
<stop offset="1" stop-color="#1C354C"/>
</linearGradient>
</defs>
</svg>
