<svg width="18" height="18" viewBox="0 0 18 18" fill="none" xmlns="http://www.w3.org/2000/svg">
<path d="M9.26306 8.63158C11.0943 8.63158 12.5788 7.14705 12.5788 5.31579C12.5788 3.48453 11.0943 2 9.26306 2C7.4318 2 5.94727 3.48453 5.94727 5.31579C5.94727 7.14705 7.4318 8.63158 9.26306 8.63158Z" fill="#D0D0D0"/>
<path fill-rule="evenodd" clip-rule="evenodd" d="M6.67795 8.7267C6.68016 8.7278 6.682 8.72891 6.68384 8.73001C7.45384 9.13749 8.33179 9.36849 9.26316 9.36849C10.1956 9.36849 11.0747 9.13675 11.8417 8.72191C11.8428 8.72154 11.8436 8.7208 11.8447 8.72043C12.1925 8.52812 12.6169 8.53991 12.954 8.75064C13.2963 8.96691 13.6168 9.22223 13.9078 9.51328C14.9442 10.5496 15.5263 11.9555 15.5263 13.4211C15.5263 13.9572 15.5263 14.4608 15.5263 14.8948C15.5263 15.5053 15.0315 16.0001 14.4211 16.0001H4.10526C3.49479 16.0001 3 15.5053 3 14.8948C3 14.4608 3 13.9572 3 13.4211C3 11.9555 3.58211 10.5496 4.61848 9.51328C4.90842 9.2237 5.2271 8.96911 5.57194 8.75948C5.57305 8.75875 5.57453 8.75764 5.576 8.75691C5.91053 8.54728 6.33237 8.53585 6.67795 8.7267Z" fill="#D0D0D0"/>
</svg>
