<svg width="68" height="68" viewBox="0 0 68 68" fill="none" xmlns="http://www.w3.org/2000/svg">
<g filter="url(#filter0_d_282_2119)">
<rect x="8" y="6" width="52" height="52" rx="18" fill="white"/>
<path fill-rule="evenodd" clip-rule="evenodd" d="M44.479 39.9636L40.2303 35.7149C41.5461 33.7733 42.0907 31.4109 41.758 29.0892C41.4252 26.7674 40.2388 24.6532 38.4306 23.1593C36.6224 21.6655 34.3223 20.8994 31.9795 21.0106C29.6367 21.1219 27.4195 22.1025 25.761 23.761C24.1025 25.4195 23.1219 27.6367 23.0106 29.9795C22.8994 32.3223 23.6655 34.6224 25.1593 36.4306C26.6532 38.2388 28.7674 39.4252 31.0892 39.758C33.4109 40.0907 35.7733 39.5461 37.7149 38.2303L41.9636 42.479C42.2972 42.8126 42.7496 43 43.2213 43C43.6931 43 44.1455 42.8126 44.479 42.479C44.8126 42.1455 45 41.6931 45 41.2213C45 40.7496 44.8126 40.2972 44.479 39.9636ZM32.4242 36.7152C31.1793 36.7157 29.9622 36.3469 28.9268 35.6556C27.8915 34.9642 27.0845 33.9813 26.6078 32.8313C26.1312 31.6812 26.0064 30.4156 26.2491 29.1946C26.4919 27.9735 27.0913 26.8519 27.9716 25.9716C28.8519 25.0913 29.9735 24.4919 31.1946 24.2491C32.4156 24.0064 33.6812 24.1312 34.8313 24.6078C35.9813 25.0845 36.9642 25.8915 37.6556 26.9268C38.3469 27.9622 38.7157 29.1793 38.7152 30.4242C38.7152 32.0927 38.0524 33.6928 36.8726 34.8726C35.6928 36.0524 34.0927 36.7152 32.4242 36.7152Z" fill="url(#paint0_linear_282_2119)"/>
</g>
<defs>
<filter id="filter0_d_282_2119" x="0" y="0" width="68" height="68" filterUnits="userSpaceOnUse" color-interpolation-filters="sRGB">
<feFlood flood-opacity="0" result="BackgroundImageFix"/>
<feColorMatrix in="SourceAlpha" type="matrix" values="0 0 0 0 0 0 0 0 0 0 0 0 0 0 0 0 0 0 127 0" result="hardAlpha"/>
<feOffset dy="2"/>
<feGaussianBlur stdDeviation="4"/>
<feComposite in2="hardAlpha" operator="out"/>
<feColorMatrix type="matrix" values="0 0 0 0 0 0 0 0 0 0 0 0 0 0 0 0 0 0 0.12 0"/>
<feBlend mode="normal" in2="BackgroundImageFix" result="effect1_dropShadow_282_2119"/>
<feBlend mode="normal" in="SourceGraphic" in2="effect1_dropShadow_282_2119" result="shape"/>
</filter>
<linearGradient id="paint0_linear_282_2119" x1="77" y1="61.5" x2="-4.74861" y2="85.9222" gradientUnits="userSpaceOnUse">
<stop offset="0.0284255" stop-color="#417DB3"/>
<stop offset="0.837603" stop-color="#1C354C"/>
</linearGradient>
</defs>
</svg>
