<svg width="52" height="52" viewBox="0 0 52 52" fill="none" xmlns="http://www.w3.org/2000/svg">
<path fill-rule="evenodd" clip-rule="evenodd" d="M36.479 33.9636L32.2303 29.7149C33.5461 27.7733 34.0907 25.4109 33.758 23.0892C33.4252 20.7674 32.2388 18.6532 30.4306 17.1593C28.6224 15.6655 26.3223 14.8994 23.9795 15.0106C21.6367 15.1219 19.4195 16.1025 17.761 17.761C16.1025 19.4195 15.1219 21.6367 15.0106 23.9795C14.8994 26.3223 15.6655 28.6224 17.1593 30.4306C18.6532 32.2388 20.7674 33.4252 23.0892 33.758C25.4109 34.0907 27.7733 33.5461 29.7149 32.2303L33.9636 36.479C34.2972 36.8126 34.7496 37 35.2213 37C35.6931 37 36.1455 36.8126 36.479 36.479C36.8126 36.1455 37 35.6931 37 35.2213C37 34.7496 36.8126 34.2972 36.479 33.9636ZM24.4242 30.7152C23.1793 30.7157 21.9622 30.3469 20.9268 29.6556C19.8915 28.9642 19.0845 27.9813 18.6078 26.8313C18.1312 25.6812 18.0064 24.4156 18.2491 23.1946C18.4919 21.9735 19.0913 20.8519 19.9716 19.9716C20.8519 19.0913 21.9735 18.4919 23.1946 18.2491C24.4156 18.0064 25.6812 18.1312 26.8313 18.6078C27.9813 19.0845 28.9642 19.8915 29.6556 20.9268C30.3469 21.9622 30.7157 23.1793 30.7152 24.4242C30.7152 26.0927 30.0524 27.6928 28.8726 28.8726C27.6928 30.0524 26.0927 30.7152 24.4242 30.7152Z" fill="#97B7D5"/>
</svg>
