<svg width="24" height="24" viewBox="0 0 24 24" fill="none" xmlns="http://www.w3.org/2000/svg">
<mask id="path-1-inside-1_386_96" fill="white">
<path fill-rule="evenodd" clip-rule="evenodd" d="M14.0517 15.1856L15.1407 16.2529L14.6934 16.7002C14.536 16.8576 14.536 17.1114 14.6934 17.2688L18.3071 20.8826C18.4637 21.0391 18.7183 21.0391 18.8749 20.8826L20.481 19.2764C20.6376 19.119 20.6376 18.8653 20.481 18.7079L16.8673 15.0941C16.7107 14.9375 16.4561 14.9375 16.2995 15.0941L15.7084 15.6851L14.6532 14.65C15.8883 13.4149 16.652 11.7084 16.652 9.82602C16.652 6.05886 13.5932 3 9.82602 3C6.05886 3 3 6.05886 3 9.82602C3 13.5932 6.05886 16.652 9.82602 16.652C11.4209 16.652 12.8889 16.1035 14.0517 15.1856ZM15.5446 16.9845L16.583 15.9461L19.629 18.9922L18.5906 20.0305L15.5446 16.9845ZM13.814 14.3376C15.062 13.2342 15.849 11.6209 15.849 9.82602C15.849 6.50135 13.1499 3.80306 9.82602 3.80306C6.50215 3.80306 3.80306 6.50135 3.80306 9.82602C3.80306 13.1499 6.50215 15.849 9.82602 15.849C11.3494 15.849 12.7419 15.282 13.8028 14.3481C13.806 14.3448 13.81 14.3408 13.814 14.3376ZM9.82602 14.2404C7.38953 14.2404 5.41158 12.2625 5.41158 9.82602C5.41158 9.60437 5.2317 9.42449 5.01005 9.42449C4.78841 9.42449 4.60852 9.60437 4.60852 9.82602C4.60852 12.7058 6.94624 15.0435 9.82602 15.0435C10.0477 15.0435 10.2275 14.8636 10.2275 14.642C10.2275 14.4203 10.0477 14.2404 9.82602 14.2404Z"/>
</mask>
<path fill-rule="evenodd" clip-rule="evenodd" d="M14.0517 15.1856L15.1407 16.2529L14.6934 16.7002C14.536 16.8576 14.536 17.1114 14.6934 17.2688L18.3071 20.8826C18.4637 21.0391 18.7183 21.0391 18.8749 20.8826L20.481 19.2764C20.6376 19.119 20.6376 18.8653 20.481 18.7079L16.8673 15.0941C16.7107 14.9375 16.4561 14.9375 16.2995 15.0941L15.7084 15.6851L14.6532 14.65C15.8883 13.4149 16.652 11.7084 16.652 9.82602C16.652 6.05886 13.5932 3 9.82602 3C6.05886 3 3 6.05886 3 9.82602C3 13.5932 6.05886 16.652 9.82602 16.652C11.4209 16.652 12.8889 16.1035 14.0517 15.1856ZM15.5446 16.9845L16.583 15.9461L19.629 18.9922L18.5906 20.0305L15.5446 16.9845ZM13.814 14.3376C15.062 13.2342 15.849 11.6209 15.849 9.82602C15.849 6.50135 13.1499 3.80306 9.82602 3.80306C6.50215 3.80306 3.80306 6.50135 3.80306 9.82602C3.80306 13.1499 6.50215 15.849 9.82602 15.849C11.3494 15.849 12.7419 15.282 13.8028 14.3481C13.806 14.3448 13.81 14.3408 13.814 14.3376ZM9.82602 14.2404C7.38953 14.2404 5.41158 12.2625 5.41158 9.82602C5.41158 9.60437 5.2317 9.42449 5.01005 9.42449C4.78841 9.42449 4.60852 9.60437 4.60852 9.82602C4.60852 12.7058 6.94624 15.0435 9.82602 15.0435C10.0477 15.0435 10.2275 14.8636 10.2275 14.642C10.2275 14.4203 10.0477 14.2404 9.82602 14.2404Z" fill="#417DB3"/>
<path d="M14.0517 15.1856L14.7517 14.4715L14.123 13.8553L13.4321 14.4007L14.0517 15.1856ZM15.1407 16.2529L15.8478 16.96L16.5621 16.2458L15.8406 15.5387L15.1407 16.2529ZM14.6934 16.7002L15.4005 17.4073L14.6934 16.7002ZM14.6934 17.2688L15.4005 16.5617L14.6934 17.2688ZM20.481 19.2764L21.1881 19.9835L21.1899 19.9817L20.481 19.2764ZM20.481 18.7079L21.19 18.0026L21.1881 18.0008L20.481 18.7079ZM15.7084 15.6851L15.0082 16.399L15.7152 17.0926L16.4156 16.3922L15.7084 15.6851ZM14.6532 14.65L13.9461 13.9429L13.2322 14.6568L13.9529 15.3639L14.6532 14.65ZM15.5446 16.9845L14.8375 16.2774L14.1304 16.9845L14.8375 17.6916L15.5446 16.9845ZM16.583 15.9461L17.2901 15.239L16.583 14.5319L15.8759 15.239L16.583 15.9461ZM19.629 18.9922L20.3361 19.6993L21.0432 18.9922L20.3361 18.2851L19.629 18.9922ZM18.5906 20.0305L17.8835 20.7376L18.5906 21.4447L19.2977 20.7376L18.5906 20.0305ZM13.814 14.3376L14.4387 15.1185L14.458 15.1031L14.4764 15.0868L13.814 14.3376ZM13.8028 14.3481L14.4636 15.0986L14.4874 15.0776L14.5099 15.0552L13.8028 14.3481ZM13.3518 15.8998L14.4407 16.9671L15.8406 15.5387L14.7517 14.4715L13.3518 15.8998ZM14.4336 15.5458L13.9863 15.9931L15.4005 17.4073L15.8478 16.96L14.4336 15.5458ZM13.9863 15.9931C13.4383 16.541 13.4383 17.428 13.9863 17.9759L15.4005 16.5617C15.6336 16.7948 15.6336 17.1742 15.4005 17.4073L13.9863 15.9931ZM13.9863 17.9759L17.6 21.5897L19.0143 20.1754L15.4005 16.5617L13.9863 17.9759ZM17.6 21.5897C18.1472 22.1368 19.0349 22.1368 19.582 21.5897L18.1678 20.1754C18.4017 19.9415 18.7803 19.9415 19.0143 20.1754L17.6 21.5897ZM19.582 21.5897L21.1881 19.9835L19.7739 18.5693L18.1678 20.1754L19.582 21.5897ZM21.1899 19.9817C21.7347 19.4342 21.7347 18.5501 21.1899 18.0026L19.7721 19.4132C19.5406 19.1805 19.5406 18.8038 19.7721 18.5711L21.1899 19.9817ZM21.1881 18.0008L17.5744 14.387L16.1602 15.8012L19.7739 19.415L21.1881 18.0008ZM17.5744 14.387C17.0272 13.8399 16.1395 13.8399 15.5924 14.387L17.0066 15.8012C16.7727 16.0351 16.3941 16.0351 16.1602 15.8012L17.5744 14.387ZM15.5924 14.387L15.0013 14.978L16.4156 16.3922L17.0066 15.8012L15.5924 14.387ZM16.4087 14.9713L15.3535 13.9361L13.9529 15.3639L15.0082 16.399L16.4087 14.9713ZM15.3603 15.3571C16.7752 13.9422 17.652 11.9843 17.652 9.82602H15.652C15.652 11.4325 15.0014 12.8876 13.9461 13.9429L15.3603 15.3571ZM17.652 9.82602C17.652 5.50657 14.1455 2 9.82602 2V4C13.0409 4 15.652 6.61114 15.652 9.82602H17.652ZM9.82602 2C5.50657 2 2 5.50657 2 9.82602H4C4 6.61114 6.61114 4 9.82602 4V2ZM2 9.82602C2 14.1455 5.50657 17.652 9.82602 17.652V15.652C6.61114 15.652 4 13.0409 4 9.82602H2ZM9.82602 17.652C11.6542 17.652 13.3387 17.0225 14.6713 15.9706L13.4321 14.4007C12.4391 15.1846 11.1876 15.652 9.82602 15.652V17.652ZM16.2517 17.6916L17.2901 16.6532L15.8759 15.239L14.8375 16.2774L16.2517 17.6916ZM15.8759 16.6532L18.9219 19.6993L20.3361 18.2851L17.2901 15.239L15.8759 16.6532ZM18.9219 18.285L17.8835 19.3234L19.2977 20.7376L20.3361 19.6993L18.9219 18.285ZM19.2977 19.3234L16.2517 16.2774L14.8375 17.6916L17.8835 20.7376L19.2977 19.3234ZM14.4764 15.0868C15.9298 13.8017 16.849 11.9195 16.849 9.82602H14.849C14.849 11.3222 14.1941 12.6667 13.1516 13.5884L14.4764 15.0868ZM16.849 9.82602C16.849 5.94897 13.7021 2.80306 9.82602 2.80306V4.80306C12.5977 4.80306 14.849 7.05372 14.849 9.82602H16.849ZM9.82602 2.80306C5.94995 2.80306 2.80306 5.94897 2.80306 9.82602H4.80306C4.80306 7.05372 7.05435 4.80306 9.82602 4.80306V2.80306ZM2.80306 9.82602C2.80306 13.7022 5.94986 16.849 9.82602 16.849V14.849C7.05443 14.849 4.80306 12.5976 4.80306 9.82602H2.80306ZM9.82602 16.849C11.6021 16.849 13.2273 16.187 14.4636 15.0986L13.142 13.5975C12.2565 14.377 11.0967 14.849 9.82602 14.849V16.849ZM14.5099 15.0552C14.5123 15.0527 14.505 15.0601 14.4956 15.069C14.4863 15.0778 14.4663 15.0964 14.4387 15.1185L13.1893 13.5567C13.1577 13.582 13.1337 13.6042 13.1206 13.6166C13.1074 13.6292 13.0964 13.6402 13.0957 13.6409L14.5099 15.0552ZM9.82602 13.2404C7.94181 13.2404 6.41158 11.7102 6.41158 9.82602H4.41158C4.41158 12.8148 6.83725 15.2404 9.82602 15.2404V13.2404ZM6.41158 9.82602C6.41158 9.05209 5.78398 8.42449 5.01005 8.42449V10.4245C4.67941 10.4245 4.41158 10.1567 4.41158 9.82602H6.41158ZM5.01005 8.42449C4.23612 8.42449 3.60852 9.05209 3.60852 9.82602H5.60852C5.60852 10.1567 5.34069 10.4245 5.01005 10.4245V8.42449ZM3.60852 9.82602C3.60852 13.2581 6.39396 16.0435 9.82602 16.0435V14.0435C7.49852 14.0435 5.60852 12.1535 5.60852 9.82602H3.60852ZM9.82602 16.0435C10.5999 16.0435 11.2275 15.4159 11.2275 14.642H9.22755C9.22755 14.3113 9.49538 14.0435 9.82602 14.0435V16.0435ZM11.2275 14.642C11.2275 13.868 10.5999 13.2404 9.82602 13.2404V15.2404C9.49538 15.2404 9.22755 14.9726 9.22755 14.642H11.2275Z" fill="#417DB3" mask="url(#path-1-inside-1_386_96)"/>
</svg>
